<mxfile host="Electron" agent="Mozilla/5.0 (Windows NT 10.0; Win64; x64) AppleWebKit/537.36 (KHTML, like Gecko) draw.io/26.0.4 Chrome/128.0.6613.186 Electron/32.2.5 Safari/537.36" version="26.0.4">
  <diagram name="Page-1" id="6a7KVMMXADuDHr8nXJMT">
    <mxGraphModel dx="1059" dy="681" grid="1" gridSize="10" guides="1" tooltips="1" connect="1" arrows="1" fold="1" page="1" pageScale="1" pageWidth="827" pageHeight="1169" math="0" shadow="0">
      <root>
        <mxCell id="0" />
        <mxCell id="1" parent="0" />
        <mxCell id="51PGL2pi71YwaRwBw_Ox-1" value="" style="rounded=0;whiteSpace=wrap;html=1;" parent="1" vertex="1">
          <mxGeometry x="240" y="160" width="510" height="220" as="geometry" />
        </mxCell>
        <mxCell id="51PGL2pi71YwaRwBw_Ox-2" value="STM32" style="text;html=1;align=center;verticalAlign=middle;whiteSpace=wrap;rounded=0;" parent="1" vertex="1">
          <mxGeometry x="240" y="160" width="60" height="30" as="geometry" />
        </mxCell>
        <mxCell id="51PGL2pi71YwaRwBw_Ox-3" value="" style="rounded=0;whiteSpace=wrap;html=1;" parent="1" vertex="1">
          <mxGeometry x="240" y="10" width="150" height="110" as="geometry" />
        </mxCell>
        <mxCell id="51PGL2pi71YwaRwBw_Ox-4" value="PC" style="text;html=1;align=center;verticalAlign=middle;whiteSpace=wrap;rounded=0;" parent="1" vertex="1">
          <mxGeometry x="240" y="10" width="60" height="30" as="geometry" />
        </mxCell>
        <mxCell id="51PGL2pi71YwaRwBw_Ox-5" value="Desktop App" style="rounded=0;whiteSpace=wrap;html=1;" parent="1" vertex="1">
          <mxGeometry x="280" y="60" width="90" height="40" as="geometry" />
        </mxCell>
        <mxCell id="9J_0VZGfneW3iqGz3crJ-6" style="edgeStyle=orthogonalEdgeStyle;rounded=0;orthogonalLoop=1;jettySize=auto;html=1;exitX=1;exitY=0.25;exitDx=0;exitDy=0;entryX=0;entryY=0.25;entryDx=0;entryDy=0;" edge="1" parent="1" source="51PGL2pi71YwaRwBw_Ox-6" target="9J_0VZGfneW3iqGz3crJ-2">
          <mxGeometry relative="1" as="geometry" />
        </mxCell>
        <mxCell id="9J_0VZGfneW3iqGz3crJ-27" style="edgeStyle=orthogonalEdgeStyle;rounded=0;orthogonalLoop=1;jettySize=auto;html=1;exitX=0.5;exitY=1;exitDx=0;exitDy=0;entryX=0.5;entryY=0;entryDx=0;entryDy=0;" edge="1" parent="1" source="51PGL2pi71YwaRwBw_Ox-6" target="51PGL2pi71YwaRwBw_Ox-7">
          <mxGeometry relative="1" as="geometry" />
        </mxCell>
        <mxCell id="51PGL2pi71YwaRwBw_Ox-6" value="User Interface" style="rounded=0;whiteSpace=wrap;html=1;" parent="1" vertex="1">
          <mxGeometry x="260" y="190" width="120" height="60" as="geometry" />
        </mxCell>
        <mxCell id="9J_0VZGfneW3iqGz3crJ-14" style="edgeStyle=orthogonalEdgeStyle;rounded=0;orthogonalLoop=1;jettySize=auto;html=1;exitX=0.5;exitY=1;exitDx=0;exitDy=0;" edge="1" parent="1" source="51PGL2pi71YwaRwBw_Ox-7" target="51PGL2pi71YwaRwBw_Ox-10">
          <mxGeometry relative="1" as="geometry">
            <Array as="points">
              <mxPoint x="320" y="370" />
              <mxPoint x="320" y="370" />
            </Array>
          </mxGeometry>
        </mxCell>
        <mxCell id="9J_0VZGfneW3iqGz3crJ-28" style="edgeStyle=orthogonalEdgeStyle;rounded=0;orthogonalLoop=1;jettySize=auto;html=1;exitX=0.5;exitY=0;exitDx=0;exitDy=0;entryX=0.5;entryY=1;entryDx=0;entryDy=0;" edge="1" parent="1" source="51PGL2pi71YwaRwBw_Ox-7" target="51PGL2pi71YwaRwBw_Ox-6">
          <mxGeometry relative="1" as="geometry" />
        </mxCell>
        <mxCell id="51PGL2pi71YwaRwBw_Ox-7" value="I/O handling&lt;div&gt;(HAL)&lt;/div&gt;" style="rounded=0;whiteSpace=wrap;html=1;fillColor=#dae8fc;strokeColor=#6c8ebf;" parent="1" vertex="1">
          <mxGeometry x="260" y="280" width="120" height="60" as="geometry" />
        </mxCell>
        <mxCell id="9J_0VZGfneW3iqGz3crJ-8" style="edgeStyle=orthogonalEdgeStyle;rounded=0;orthogonalLoop=1;jettySize=auto;html=1;exitX=1;exitY=0.5;exitDx=0;exitDy=0;entryX=0;entryY=0.5;entryDx=0;entryDy=0;" edge="1" parent="1" source="51PGL2pi71YwaRwBw_Ox-8" target="9J_0VZGfneW3iqGz3crJ-3">
          <mxGeometry relative="1" as="geometry" />
        </mxCell>
        <mxCell id="51PGL2pi71YwaRwBw_Ox-8" value="Control device&lt;div&gt;handling&lt;/div&gt;&lt;div&gt;(HAL)&lt;/div&gt;" style="rounded=0;whiteSpace=wrap;html=1;fillColor=#dae8fc;strokeColor=#6c8ebf;" parent="1" vertex="1">
          <mxGeometry x="570" y="190" width="120" height="60" as="geometry" />
        </mxCell>
        <mxCell id="9J_0VZGfneW3iqGz3crJ-13" style="edgeStyle=orthogonalEdgeStyle;rounded=0;orthogonalLoop=1;jettySize=auto;html=1;exitX=0;exitY=0.5;exitDx=0;exitDy=0;entryX=1;entryY=0.5;entryDx=0;entryDy=0;" edge="1" parent="1" source="51PGL2pi71YwaRwBw_Ox-9" target="51PGL2pi71YwaRwBw_Ox-7">
          <mxGeometry relative="1" as="geometry" />
        </mxCell>
        <mxCell id="9J_0VZGfneW3iqGz3crJ-15" style="edgeStyle=orthogonalEdgeStyle;rounded=0;orthogonalLoop=1;jettySize=auto;html=1;exitX=0;exitY=0.5;exitDx=0;exitDy=0;entryX=0;entryY=0.5;entryDx=0;entryDy=0;" edge="1" parent="1" source="51PGL2pi71YwaRwBw_Ox-9" target="9J_0VZGfneW3iqGz3crJ-2">
          <mxGeometry relative="1" as="geometry" />
        </mxCell>
        <mxCell id="51PGL2pi71YwaRwBw_Ox-9" value="Sensor&amp;nbsp;&lt;div&gt;handling&lt;/div&gt;&lt;div&gt;(HAL/SCDlib)&lt;/div&gt;" style="rounded=0;whiteSpace=wrap;html=1;fillColor=#dae8fc;strokeColor=#6c8ebf;" parent="1" vertex="1">
          <mxGeometry x="570" y="280" width="120" height="60" as="geometry" />
        </mxCell>
        <mxCell id="51PGL2pi71YwaRwBw_Ox-10" value="I/O Device" style="rounded=0;whiteSpace=wrap;html=1;dashed=1;fillColor=#f8cecc;strokeColor=#b85450;" parent="1" vertex="1">
          <mxGeometry x="260" y="400" width="120" height="60" as="geometry" />
        </mxCell>
        <mxCell id="9J_0VZGfneW3iqGz3crJ-7" style="edgeStyle=orthogonalEdgeStyle;rounded=0;orthogonalLoop=1;jettySize=auto;html=1;exitX=1;exitY=0.5;exitDx=0;exitDy=0;entryX=0;entryY=0.5;entryDx=0;entryDy=0;" edge="1" parent="1" source="9J_0VZGfneW3iqGz3crJ-2" target="51PGL2pi71YwaRwBw_Ox-8">
          <mxGeometry relative="1" as="geometry" />
        </mxCell>
        <mxCell id="9J_0VZGfneW3iqGz3crJ-18" style="edgeStyle=orthogonalEdgeStyle;rounded=0;orthogonalLoop=1;jettySize=auto;html=1;exitX=0;exitY=0.5;exitDx=0;exitDy=0;entryX=1;entryY=0.5;entryDx=0;entryDy=0;" edge="1" parent="1" source="9J_0VZGfneW3iqGz3crJ-2" target="51PGL2pi71YwaRwBw_Ox-6">
          <mxGeometry relative="1" as="geometry" />
        </mxCell>
        <mxCell id="9J_0VZGfneW3iqGz3crJ-2" value="Control&amp;nbsp;&lt;div&gt;algorithm&lt;/div&gt;" style="rounded=0;whiteSpace=wrap;html=1;fillColor=#ffe6cc;strokeColor=#d79b00;" vertex="1" parent="1">
          <mxGeometry x="414" y="190" width="120" height="60" as="geometry" />
        </mxCell>
        <mxCell id="9J_0VZGfneW3iqGz3crJ-9" style="edgeStyle=orthogonalEdgeStyle;rounded=0;orthogonalLoop=1;jettySize=auto;html=1;exitX=1;exitY=0.5;exitDx=0;exitDy=0;entryX=0;entryY=0.5;entryDx=0;entryDy=0;" edge="1" parent="1" source="9J_0VZGfneW3iqGz3crJ-3" target="9J_0VZGfneW3iqGz3crJ-5">
          <mxGeometry relative="1" as="geometry" />
        </mxCell>
        <mxCell id="9J_0VZGfneW3iqGz3crJ-3" value="control device" style="rounded=0;whiteSpace=wrap;html=1;dashed=1;fillColor=#f8cecc;strokeColor=#b85450;" vertex="1" parent="1">
          <mxGeometry x="800" y="190" width="120" height="60" as="geometry" />
        </mxCell>
        <mxCell id="9J_0VZGfneW3iqGz3crJ-12" style="edgeStyle=orthogonalEdgeStyle;rounded=0;orthogonalLoop=1;jettySize=auto;html=1;exitX=0;exitY=0.5;exitDx=0;exitDy=0;entryX=1;entryY=0.5;entryDx=0;entryDy=0;" edge="1" parent="1" source="9J_0VZGfneW3iqGz3crJ-4" target="51PGL2pi71YwaRwBw_Ox-9">
          <mxGeometry relative="1" as="geometry" />
        </mxCell>
        <mxCell id="9J_0VZGfneW3iqGz3crJ-4" value="Sensor" style="rounded=0;whiteSpace=wrap;html=1;dashed=1;fillColor=#f8cecc;strokeColor=#b85450;" vertex="1" parent="1">
          <mxGeometry x="800" y="280" width="120" height="60" as="geometry" />
        </mxCell>
        <mxCell id="9J_0VZGfneW3iqGz3crJ-10" style="edgeStyle=orthogonalEdgeStyle;rounded=0;orthogonalLoop=1;jettySize=auto;html=1;exitX=1;exitY=0.5;exitDx=0;exitDy=0;" edge="1" parent="1" source="9J_0VZGfneW3iqGz3crJ-5">
          <mxGeometry relative="1" as="geometry">
            <mxPoint x="1150" y="220" as="targetPoint" />
          </mxGeometry>
        </mxCell>
        <mxCell id="9J_0VZGfneW3iqGz3crJ-11" style="edgeStyle=orthogonalEdgeStyle;rounded=0;orthogonalLoop=1;jettySize=auto;html=1;exitX=1;exitY=0.5;exitDx=0;exitDy=0;entryX=1;entryY=0.5;entryDx=0;entryDy=0;" edge="1" parent="1" source="9J_0VZGfneW3iqGz3crJ-5" target="9J_0VZGfneW3iqGz3crJ-4">
          <mxGeometry relative="1" as="geometry" />
        </mxCell>
        <mxCell id="9J_0VZGfneW3iqGz3crJ-5" value="Process" style="rounded=0;whiteSpace=wrap;html=1;dashed=1;fillColor=#f8cecc;strokeColor=#b85450;" vertex="1" parent="1">
          <mxGeometry x="970" y="190" width="120" height="60" as="geometry" />
        </mxCell>
        <mxCell id="9J_0VZGfneW3iqGz3crJ-20" value="" style="endArrow=none;dashed=1;html=1;dashPattern=1 3;strokeWidth=2;rounded=0;exitX=0.75;exitY=0;exitDx=0;exitDy=0;entryX=0.25;entryY=0;entryDx=0;entryDy=0;" edge="1" parent="1" source="51PGL2pi71YwaRwBw_Ox-6" target="9J_0VZGfneW3iqGz3crJ-2">
          <mxGeometry width="50" height="50" relative="1" as="geometry">
            <mxPoint x="380" y="280" as="sourcePoint" />
            <mxPoint x="430" y="230" as="targetPoint" />
            <Array as="points">
              <mxPoint x="370" y="170" />
              <mxPoint x="400" y="170" />
              <mxPoint x="430" y="170" />
            </Array>
          </mxGeometry>
        </mxCell>
        <mxCell id="9J_0VZGfneW3iqGz3crJ-21" value="" style="endArrow=none;dashed=1;html=1;dashPattern=1 3;strokeWidth=2;rounded=0;exitX=0.5;exitY=0;exitDx=0;exitDy=0;" edge="1" parent="1" source="51PGL2pi71YwaRwBw_Ox-8">
          <mxGeometry width="50" height="50" relative="1" as="geometry">
            <mxPoint x="380" y="280" as="sourcePoint" />
            <mxPoint x="430" y="170" as="targetPoint" />
            <Array as="points">
              <mxPoint x="600" y="170" />
            </Array>
          </mxGeometry>
        </mxCell>
        <mxCell id="9J_0VZGfneW3iqGz3crJ-22" value="" style="endArrow=none;dashed=1;html=1;dashPattern=1 3;strokeWidth=2;rounded=0;entryX=0.25;entryY=0;entryDx=0;entryDy=0;" edge="1" parent="1" target="51PGL2pi71YwaRwBw_Ox-9">
          <mxGeometry width="50" height="50" relative="1" as="geometry">
            <mxPoint x="540" y="170" as="sourcePoint" />
            <mxPoint x="430" y="280" as="targetPoint" />
            <Array as="points">
              <mxPoint x="560" y="240" />
            </Array>
          </mxGeometry>
        </mxCell>
        <mxCell id="9J_0VZGfneW3iqGz3crJ-25" value="" style="endArrow=classic;startArrow=classic;html=1;rounded=0;entryX=0.5;entryY=1;entryDx=0;entryDy=0;strokeColor=#FF8000;strokeWidth=3;" edge="1" parent="1" target="51PGL2pi71YwaRwBw_Ox-5">
          <mxGeometry width="100" height="100" relative="1" as="geometry">
            <mxPoint x="325" y="190" as="sourcePoint" />
            <mxPoint x="490" y="130" as="targetPoint" />
          </mxGeometry>
        </mxCell>
        <mxCell id="9J_0VZGfneW3iqGz3crJ-26" value="Serial&lt;div&gt;communication&lt;/div&gt;" style="text;html=1;align=center;verticalAlign=middle;resizable=0;points=[];autosize=1;strokeColor=none;fillColor=none;" vertex="1" parent="1">
          <mxGeometry x="314" y="120" width="100" height="40" as="geometry" />
        </mxCell>
      </root>
    </mxGraphModel>
  </diagram>
</mxfile>
